# xmcd
#
# Track frame offsets:
#	150
#	15834
#	40823
#	55872
#	73204
#	88571
#	105237
#	116926
#	137661
#	154170
#	173388
#	183431
#	196257
#	224720
#	252688
#
# Disc length: 3671 seconds
#
# Revision: 1
# Processed by: cddbd v1.5.2PL0 Copyright (c) Steve Scherf et al.
# Submitted via: audiograbber 1.83.01
#
DISCID=cf0e550f
DTITLE=Uncut - 1209 Complete Control
DYEAR=2012
DGENRE=Indie
TTITLE0=Guantanamo - Ry Cooder
TTITLE1=Southern Sky - John Murry
TTITLE2=When I'm Asleep - Jesca Hoop
TTITLE3=The Stairs - Family of the Year
TTITLE4=Gun Has No Trigger - Dirty Projectors
TTITLE5=One Of My Kind - Conor Oberst and The Mystic Valley Band
TTITLE6=Opossum - Girl
TTITLE7=Race Horses - Nobody's Son
TTITLE8=Bailterspace - Things That We Found
TTITLE9=Hurray For The Riff Raff - Go Out On The Road
TTITLE10=Sir Richard Bishop - Dust and Spurs
TTITLE11=Dan Deacon - Lots
TTITLE12=Sam Lee - On Yonder Hill
TTITLE13=Antibalas - Dirty Money
TTITLE14=Bill Fay - Be At Peace With Yourself
EXTD=
EXTT0=
EXTT1=
EXTT2=
EXTT3=
EXTT4=
EXTT5=
EXTT6=
EXTT7=
EXTT8=
EXTT9=
EXTT10=
EXTT11=
EXTT12=
EXTT13=
EXTT14=
PLAYORDER=
